<?xml version="1.0" encoding="UTF-8"?>
<svg xmlns="http://www.w3.org/2000/svg" xmlns:xlink="http://www.w3.org/1999/xlink" id="Layer_1" data-name="Layer 1" viewBox="0 0 480.31 137.52">
  <defs>
    <style>
      .cls-1 {
        fill: url(#linear-gradient);
      }

      .cls-1, .cls-2, .cls-3, .cls-4, .cls-5, .cls-6, .cls-7, .cls-8, .cls-9, .cls-10, .cls-11, .cls-12, .cls-13 {
        stroke-width: 0px;
      }

      .cls-2 {
        fill: url(#linear-gradient-11);
      }

      .cls-3 {
        fill: url(#linear-gradient-12);
      }

      .cls-4 {
        fill: url(#linear-gradient-10);
      }

      .cls-5 {
        fill: url(#linear-gradient-4);
      }

      .cls-6 {
        fill: url(#linear-gradient-2);
      }

      .cls-7 {
        fill: url(#linear-gradient-3);
      }

      .cls-8 {
        fill: url(#linear-gradient-8);
      }

      .cls-9 {
        fill: url(#linear-gradient-9);
      }

      .cls-10 {
        fill: url(#linear-gradient-7);
      }

      .cls-11 {
        fill: url(#linear-gradient-5);
      }

      .cls-12 {
        fill: url(#linear-gradient-6);
      }

      .cls-13 {
        fill: #1f1f1f;
      }
    </style>
    <linearGradient id="linear-gradient" x1="132.79" y1="155.85" x2="132.79" y2="-14.57" gradientUnits="userSpaceOnUse">
      <stop offset="0" stop-color="#389400"></stop>
      <stop offset="1" stop-color="#75c400"></stop>
    </linearGradient>
    <linearGradient id="linear-gradient-2" x1="25.14" y1="112.3" x2="25.14" y2="41.92" xlink:href="#linear-gradient"></linearGradient>
    <linearGradient id="linear-gradient-3" x1="79.23" y1="96.41" x2="79.23" y2="41.92" xlink:href="#linear-gradient"></linearGradient>
    <linearGradient id="linear-gradient-4" x1="184.52" y1="96.41" x2="184.52" y2="42.12" gradientUnits="userSpaceOnUse">
      <stop offset="0" stop-color="#000"></stop>
      <stop offset="1" stop-color="#1f1f1f"></stop>
    </linearGradient>
    <linearGradient id="linear-gradient-5" x1="242.93" x2="242.93" y2="42.94" xlink:href="#linear-gradient-4"></linearGradient>
    <linearGradient id="linear-gradient-6" x1="296.46" y1="95.59" x2="296.46" y2="41.92" xlink:href="#linear-gradient-4"></linearGradient>
    <linearGradient id="linear-gradient-7" x1="336.48" x2="336.48" xlink:href="#linear-gradient-4"></linearGradient>
    <linearGradient id="linear-gradient-8" x1="387.01" x2="387.01" xlink:href="#linear-gradient-4"></linearGradient>
    <linearGradient id="linear-gradient-9" x1="429.27" y1="95.59" x2="429.27" y2="19.58" xlink:href="#linear-gradient-4"></linearGradient>
    <linearGradient id="linear-gradient-10" x1="462.53" y1="95.59" x2="462.53" y2="20.19" xlink:href="#linear-gradient-4"></linearGradient>
    <linearGradient id="linear-gradient-11" x1="105.27" y1="139.98" x2="105.27" y2="-30.98" xlink:href="#linear-gradient"></linearGradient>
    <linearGradient id="linear-gradient-12" x1="770.28" y1="95.1" x2="770.28" y2="-18.35" gradientTransform="translate(930.58) rotate(-180) scale(1 -1)" xlink:href="#linear-gradient-4"></linearGradient>
  </defs>
  <path class="cls-1" d="M148.04,15.25c0,8.44-6.82,15.25-15.25,15.25s-15.26-6.82-15.26-15.25,6.83-15.25,15.26-15.25,15.25,6.83,15.25,15.25Z"></path>
  <g>
    <path class="cls-6" d="M0,112.3V42.94h9.75c.98,0,1.81.22,2.46.66.66.44,1.13,1.1,1.4,1.98l1.16,3.86c1.02-1.12,2.11-2.13,3.28-3.05,1.17-.91,2.42-1.7,3.76-2.36,1.34-.66,2.78-1.18,4.32-1.55,1.54-.37,3.22-.56,5.05-.56,2.74,0,5.28.61,7.62,1.83,2.34,1.22,4.35,2.98,6.04,5.28,1.69,2.3,3.02,5.12,3.99,8.46.96,3.34,1.45,7.12,1.45,11.35,0,3.96-.55,7.61-1.65,10.97-1.1,3.35-2.64,6.26-4.62,8.74-1.98,2.47-4.35,4.4-7.11,5.79-2.76,1.39-5.81,2.08-9.17,2.08-2.75,0-5.05-.39-6.91-1.16-1.86-.78-3.56-1.83-5.08-3.15v20.21H0ZM25.7,53.95c-1.15,0-2.19.11-3.13.33-.93.22-1.8.53-2.59.94-.8.41-1.53.92-2.21,1.55-.68.63-1.36,1.35-2.03,2.16v22.34c1.18,1.32,2.47,2.25,3.86,2.77,1.39.53,2.84.79,4.36.79s2.8-.29,4.01-.87c1.22-.58,2.28-1.5,3.17-2.77.9-1.27,1.6-2.92,2.11-4.95.51-2.03.76-4.5.76-7.41s-.2-5.11-.61-7.01c-.41-1.89-.97-3.43-1.7-4.6-.73-1.17-1.6-2.01-2.62-2.51-1.02-.51-2.15-.77-3.4-.77Z"></path>
    <path class="cls-7" d="M95.07,95.59c-1.49,0-2.61-.2-3.38-.61-.76-.41-1.39-1.26-1.9-2.54l-1.12-2.89c-1.32,1.12-2.59,2.1-3.81,2.94-1.22.85-2.48,1.56-3.79,2.16-1.3.6-2.69,1.03-4.16,1.33-1.47.28-3.11.42-4.9.42-2.41,0-4.59-.32-6.55-.94-1.97-.62-3.63-1.55-5-2.76-1.37-1.22-2.43-2.74-3.17-4.55-.75-1.81-1.12-3.9-1.12-6.27,0-1.86.48-3.77,1.42-5.74.95-1.96,2.59-3.75,4.92-5.36,2.34-1.61,5.49-2.96,9.45-4.04,3.96-1.08,8.96-1.68,14.98-1.82v-2.23c0-3.08-.63-5.31-1.91-6.68-1.27-1.37-3.07-2.06-5.41-2.06-1.86,0-3.38.2-4.57.61-1.18.41-2.24.87-3.17,1.37-.93.51-1.84.96-2.72,1.37-.88.41-1.93.61-3.15.61-1.08,0-2-.26-2.77-.79-.76-.52-1.36-1.17-1.8-1.95l-2.85-4.92c3.18-2.8,6.71-4.9,10.59-6.27,3.87-1.38,8.03-2.06,12.47-2.06,3.18,0,6.05.52,8.61,1.55,2.55,1.03,4.72,2.47,6.5,4.32,1.77,1.85,3.14,4.04,4.09,6.57.94,2.54,1.42,5.32,1.42,8.33v32.9h-7.22ZM76.96,86c2.04,0,3.82-.35,5.35-1.07,1.53-.71,3.08-1.86,4.64-3.45v-7.31c-3.16.13-5.76.41-7.8.81-2.04.41-3.65.91-4.84,1.52-1.19.61-2.02,1.3-2.47,2.08-.46.78-.69,1.62-.69,2.54,0,1.79.49,3.06,1.48,3.78.98.73,2.43,1.09,4.33,1.09Z"></path>
  </g>
  <g>
    <path class="cls-5" d="M184.62,42.12c4,0,7.63.63,10.92,1.88,3.28,1.25,6.1,3.05,8.46,5.39,2.36,2.33,4.18,5.17,5.49,8.5,1.3,3.33,1.95,7.09,1.95,11.24s-.65,7.98-1.95,11.35c-1.3,3.37-3.13,6.23-5.49,8.59-2.35,2.36-5.17,4.17-8.46,5.43-3.28,1.27-6.92,1.9-10.92,1.9s-7.69-.63-10.99-1.9c-3.3-1.27-6.15-3.08-8.53-5.43-2.39-2.36-4.23-5.21-5.54-8.59-1.3-3.37-1.95-7.15-1.95-11.35s.65-7.91,1.95-11.24c1.31-3.34,3.15-6.17,5.54-8.5,2.39-2.34,5.23-4.14,8.53-5.39,3.3-1.25,6.96-1.88,10.99-1.88ZM184.62,84.73c3.62,0,6.29-1.28,8-3.84,1.71-2.55,2.56-6.44,2.56-11.65s-.85-9.09-2.56-11.63c-1.71-2.54-4.38-3.82-8-3.82s-6.45,1.27-8.18,3.82c-1.73,2.53-2.59,6.41-2.59,11.63s.86,9.1,2.59,11.65c1.73,2.56,4.45,3.84,8.18,3.84Z"></path>
    <path class="cls-11" d="M234.8,42.94v33.42c0,2.61.59,4.62,1.78,6.04,1.19,1.42,2.93,2.13,5.23,2.13,1.72,0,3.34-.36,4.85-1.07,1.5-.71,2.97-1.71,4.39-3v-37.53h15.74v52.66h-9.75c-1.97,0-3.25-.88-3.86-2.64l-.97-3.05c-1.01.98-2.06,1.87-3.15,2.66-1.08.8-2.25,1.47-3.48,2.03-1.23.56-2.56,1-3.99,1.32-1.42.32-2.98.48-4.67.48-2.88,0-5.43-.5-7.65-1.5-2.22-1-4.09-2.39-5.61-4.19-1.52-1.79-2.67-3.91-3.45-6.35-.78-2.44-1.17-5.11-1.17-8.02v-33.42h15.74Z"></path>
    <path class="cls-12" d="M278.99,95.59v-52.66h9.34c.78,0,1.43.07,1.95.2.52.14.97.35,1.32.64.36.29.63.66.81,1.14.19.47.35,1.05.49,1.72l.86,4.93c1.92-2.98,4.1-5.33,6.5-7.06,2.4-1.73,5.03-2.59,7.86-2.59,2.41,0,4.34.58,5.8,1.73l-2.03,11.58c-.14.71-.41,1.21-.81,1.5-.41.29-.96.43-1.62.43-.58,0-1.25-.08-2.03-.23-.78-.15-1.76-.23-2.95-.23-4.13,0-7.38,2.2-9.76,6.61v32.29h-15.73Z"></path>
    <path class="cls-10" d="M353.15,54.46c-.41.64-.85,1.1-1.3,1.37-.46.27-1.04.41-1.75.41s-1.49-.16-2.22-.48c-.74-.32-1.55-.67-2.41-1.04-.86-.37-1.83-.72-2.91-1.04-1.08-.32-2.32-.48-3.7-.48-2,0-3.52.38-4.59,1.14-1.07.76-1.6,1.82-1.6,3.17,0,.99.34,1.8,1.04,2.44.69.64,1.61,1.21,2.77,1.7,1.14.49,2.45.96,3.9,1.4,1.45.44,2.94.93,4.45,1.47,1.52.55,3.01,1.18,4.46,1.9,1.46.73,2.76,1.62,3.9,2.69,1.15,1.07,2.07,2.36,2.77,3.88.69,1.53,1.03,3.36,1.03,5.49,0,2.61-.47,5.01-1.42,7.21-.95,2.2-2.36,4.1-4.24,5.69-1.88,1.59-4.2,2.83-6.96,3.71-2.76.88-5.93,1.32-9.52,1.32-1.79,0-3.59-.17-5.38-.51-1.8-.34-3.54-.8-5.21-1.37-1.68-.57-3.22-1.26-4.64-2.05-1.42-.8-2.64-1.66-3.66-2.57l3.66-5.79c.44-.68.96-1.21,1.57-1.6.61-.39,1.4-.58,2.39-.58.92,0,1.73.2,2.46.61.73.41,1.52.85,2.36,1.32.85.48,1.84.91,2.97,1.32,1.13.41,2.56.61,4.29.61,1.22,0,2.25-.13,3.1-.38.85-.25,1.53-.6,2.03-1.04.51-.44.89-.93,1.12-1.47.23-.54.35-1.1.35-1.68,0-1.05-.35-1.91-1.07-2.59-.71-.67-1.64-1.26-2.79-1.75-1.15-.49-2.46-.95-3.93-1.37-1.48-.43-2.97-.91-4.5-1.45-1.52-.54-3.02-1.19-4.5-1.96-1.47-.76-2.78-1.72-3.93-2.9-1.15-1.17-2.08-2.6-2.79-4.29-.71-1.7-1.07-3.74-1.07-6.14,0-2.24.43-4.36,1.29-6.38.86-2.01,2.16-3.78,3.89-5.31,1.73-1.53,3.9-2.73,6.5-3.63,2.61-.9,5.65-1.35,9.14-1.35,1.9,0,3.74.17,5.51.51,1.78.34,3.44.81,5,1.42,1.57.61,2.98,1.33,4.27,2.16,1.3.82,2.43,1.73,3.41,2.71l-3.54,5.53Z"></path>
    <path class="cls-8" d="M388.17,42.12c3.49,0,6.69.54,9.58,1.62,2.89,1.09,5.38,2.66,7.47,4.73,2.08,2.06,3.71,4.59,4.87,7.59,1.17,3,1.75,6.4,1.75,10.18,0,1.19-.05,2.15-.15,2.89-.1.75-.29,1.34-.56,1.78-.27.44-.63.74-1.09.91-.46.17-1.04.25-1.75.25h-30.38c.52,4.4,1.84,7.59,4.02,9.57,2.16,1.98,4.96,2.97,8.38,2.97,1.83,0,3.4-.22,4.72-.66,1.32-.44,2.49-.93,3.53-1.47,1.02-.54,1.98-1.03,2.85-1.47.86-.44,1.76-.66,2.72-.66,1.24,0,2.2.46,2.85,1.37l4.57,5.64c-1.62,1.86-3.38,3.38-5.26,4.54-1.88,1.17-3.81,2.08-5.79,2.74-1.98.66-3.96,1.12-5.94,1.37-1.99.25-3.87.38-5.66.38-3.7,0-7.16-.6-10.39-1.8-3.23-1.2-6.06-2.99-8.48-5.36-2.42-2.37-4.33-5.31-5.74-8.84-1.4-3.52-2.1-7.62-2.1-12.29,0-3.52.6-6.85,1.8-10,1.2-3.15,2.93-5.91,5.19-8.28,2.24-2.37,4.97-4.25,8.17-5.64,3.19-1.39,6.8-2.08,10.83-2.08ZM388.49,52.99c-3.01,0-5.38.86-7.07,2.56-1.68,1.71-2.81,4.18-3.35,7.39h19.66c0-1.25-.17-2.47-.49-3.66-.32-1.19-.84-2.24-1.57-3.17-.73-.93-1.69-1.68-2.87-2.26-1.19-.58-2.63-.87-4.32-.87Z"></path>
    <path class="cls-9" d="M437.14,19.58v76.02h-15.74V19.58h15.74Z"></path>
    <path class="cls-4" d="M452.17,95.59v-41.84l-3.45-.71c-1.19-.27-2.15-.69-2.88-1.27-.73-.58-1.09-1.42-1.09-2.54v-6.19h7.42v-3c0-3.01.48-5.74,1.44-8.17.98-2.44,2.36-4.52,4.18-6.25,1.8-1.73,4.02-3.06,6.62-4.01,2.61-.94,5.57-1.42,8.89-1.42,1.29,0,2.48.08,3.58.23,1.1.15,2.24.4,3.43.74l-.31,7.66c-.03.54-.17.99-.43,1.35-.25.35-.57.64-.94.86-.37.22-.79.38-1.24.48-.46.1-.91.15-1.35.15-1.39,0-2.62.14-3.71.41-1.09.27-1.99.75-2.72,1.45-.73.69-1.29,1.6-1.65,2.74-.37,1.14-.56,2.56-.56,4.29v2.49h12.39v10.76h-11.88v41.79h-15.74Z"></path>
  </g>
  <g>
    <path class="cls-13" d="M195.62,116.24h-7.92v6.86h7.67v2.4h-7.67v11.44h-2.59v-23.11h10.51v2.4Z"></path>
    <path class="cls-13" d="M214.85,113.84v23.11h-2.59v-23.11h2.59Z"></path>
    <path class="cls-13" d="M239.02,126.6l7.35,10.34h-3.15l-6.98-10.14h-.66v10.14h-2.59v-23.11h3.74c1.32,0,2.41.1,3.26.29.86.19,1.61.51,2.28.96.84.56,1.47,1.32,1.91,2.27.43.93.64,1.91.64,2.96,0,2.27-.83,3.98-2.51,5.13-.96.66-2.06,1.04-3.3,1.15ZM235.58,124.53h1.61c1.57,0,2.77-.31,3.59-.93,1.01-.77,1.51-1.86,1.51-3.28,0-1.51-.56-2.62-1.68-3.34-.8-.5-1.96-.74-3.49-.74h-1.54v8.29Z"></path>
    <path class="cls-13" d="M274.89,117.05l-2.03,1.34c-.45-.71-.85-1.22-1.2-1.52-.73-.67-1.65-1-2.76-1-1.19,0-2.13.38-2.85,1.15-.65.7-.98,1.5-.98,2.42,0,1,.48,1.83,1.44,2.49.56.37,1.17.7,1.81.98l2.2.97c1.89.83,3.21,1.72,3.96,2.66.84,1.04,1.27,2.28,1.27,3.72,0,2.15-.81,3.92-2.42,5.33-1.37,1.19-3.01,1.78-4.92,1.78-2.43,0-4.34-.93-5.74-2.79-.63-.83-1.08-1.88-1.39-3.18l2.51-.69c.22,1.05.54,1.84.93,2.38.41.58.96,1.03,1.63,1.37.67.33,1.39.5,2.16.5,1.33,0,2.45-.47,3.35-1.4.86-.88,1.29-1.93,1.29-3.15,0-1.39-.64-2.48-1.91-3.28-.59-.37-1.95-1.04-4.1-2-1.71-.78-2.9-1.6-3.59-2.47-.73-.91-1.08-1.99-1.08-3.23,0-1.96.76-3.5,2.3-4.62,1.22-.89,2.61-1.34,4.17-1.34,2.59,0,4.58,1.2,5.96,3.61Z"></path>
    <path class="cls-13" d="M298.21,116.24v20.7h-2.59v-20.7h-5.58v-2.4h13.79v2.4h-5.62Z"></path>
  </g>
  <path class="cls-2" d="M131.43,43.76L79.1,6.55s52.32,37.21,52.32,130.97V43.76Z"></path>
  <path class="cls-3" d="M134.14,43.76L186.47,6.55s-45.15,36.38-52.32,86.92v-49.71Z"></path>
</svg>
